<svg width="1280" height="420" viewBox="0 0 1280 420" fill="none" xmlns="http://www.w3.org/2000/svg" role="img" aria-label="Redteam Seedbank project cover">
  <rect width="1280" height="420" rx="30" fill="#111827"/>
  <path d="M0 332C168 286 293 306 420 336C560 369 699 376 853 325C1018 270 1148 277 1280 320V420H0V332Z" fill="#64748b" opacity=".16"/>
  <path d="M86 84h560" stroke="#64748b" stroke-width="10" stroke-linecap="round"/>
  <text x="86" y="176" fill="#f8fafc" font-family="Manrope, ui-sans-serif, system-ui" font-size="62" font-weight="800">Redteam Seedbank</text>
  <text x="90" y="237" fill="#e0f2fe" font-family="Manrope, ui-sans-serif, system-ui" font-size="24" font-weight="500">Generate compact red-team prompt seeds for...</text>
  <rect x="90" y="288" width="275" height="46" rx="23" fill="#64748b" opacity=".20"/>
  <text x="118" y="319" fill="#f8fafc" font-family="Manrope, ui-sans-serif, system-ui" font-size="18" font-weight="800" letter-spacing="1">DEVELOPER TOOLING</text>

  <path d="M793 111h326v196H793z" fill="none" stroke="#64748b" stroke-width="12"/>
  <path d="M823 151h81v116h-81zM933 189h81v78h-81zM1043 132h45v135h-45z" fill="#38bdf8" opacity=".75"/>
</svg>
